<svg height='300px' width='300px'  fill="#c19d56" xmlns="http://www.w3.org/2000/svg" viewBox="0 0 64 64" x="0px" y="0px"><title>Long hair Girl baker</title><g><path d="M35.5,37h-7A9.5,9.5,0,0,1,19,27.5v-2l.2-.15A2.53,2.53,0,0,0,20,23.5V20H44v3.5a2.51,2.51,0,0,0,.73,1.77l.2.15.07.31V27.5A9.5,9.5,0,0,1,35.5,37ZM20,26V27.5A8.51,8.51,0,0,0,28.5,36h7A8.51,8.51,0,0,0,44,27.5V26a3.47,3.47,0,0,1-1-2.45V21H21v2.5A3.47,3.47,0,0,1,20,26Z"></path><path d="M32,34a4,4,0,0,1-2.85-1.19.49.49,0,0,1,.7-.7,3.05,3.05,0,0,0,4.3,0,.49.49,0,0,1,.7.7A4,4,0,0,1,32,34Z"></path><path d="M27.5,24.79a.5.5,0,0,1-.35-.14,1.62,1.62,0,0,0-2.3,0,.5.5,0,0,1-.7,0,.5.5,0,0,1,0-.71,2.62,2.62,0,0,1,3.7,0,.5.5,0,0,1-.35.85Z"></path><path d="M39.5,24.79a.5.5,0,0,1-.35-.14,1.65,1.65,0,0,0-2.3,0,.5.5,0,0,1-.7,0,.5.5,0,0,1,0-.71,2.68,2.68,0,0,1,3.7,0,.5.5,0,0,1-.35.85Z"></path><rect x="25" y="26" width="2" height="3" rx="1" ry="1"></rect><rect x="37" y="26" width="2" height="3" rx="1" ry="1"></rect><path d="M45,59.42a.49.49,0,0,1-.41.57H44.5a.5.5,0,0,1-.49-.42L42.25,48.44a8.89,8.89,0,0,0-.66-2.22v0c-.09-.21-.2-.42-.31-.63a.41.41,0,0,0-.07-.11l-.06-.1a3.36,3.36,0,0,0-.32-.51q-.14-.21-.3-.42l-.06-.08c-.05-.06-.1-.13-.16-.19s-.21-.25-.33-.37a2.54,2.54,0,0,0-.28-.29h0l-.42-.38a9.15,9.15,0,0,0-1-.76,8.5,8.5,0,0,0-1-.55h0a1.94,1.94,0,0,0-.3-.13l-.13,0a2,2,0,0,0-.39-.14l-.47-.15c-.25-.07-.51-.13-.77-.18H35l-.15,0a2.44,2.44,0,0,0-.39,0h-.1a.29.29,0,0,1-.13,0,.36.36,0,0,1-.14-.11.38.38,0,0,1-.09-.13.09.09,0,0,1,0,0,.4.4,0,0,1,0-.15v0a.51.51,0,0,1,.49-.45h.06l.24,0,.21,0h.09l.11,0a.25.25,0,0,1,.12,0l.1,0,.2,0,.12,0a3.77,3.77,0,0,1,.6.16l.32.1a5.17,5.17,0,0,1,.51.18l0,0a3.65,3.65,0,0,1,.41.18,5.08,5.08,0,0,1,.47.23,3.75,3.75,0,0,1,.44.24l.23.14a9.87,9.87,0,0,1,1.14.84c.22.19.43.39.63.59a9.52,9.52,0,0,1,1.11,1.34c.16.24.31.49.45.74a7.37,7.37,0,0,1,.52,1.1,9.37,9.37,0,0,1,.61,2.16Z"></path><path d="M30,40.5v0a.77.77,0,0,1,0,.15l0,0a.38.38,0,0,1-.09.13.36.36,0,0,1-.14.11.29.29,0,0,1-.13,0h-.15a2,2,0,0,0-.34,0l-.11,0h0a.51.51,0,0,0-.17,0l-.17,0a5.42,5.42,0,0,0-.94.26,2.51,2.51,0,0,0-.46.16,7.79,7.79,0,0,0-1,.47,3.91,3.91,0,0,0-.44.26,4,4,0,0,0-.54.37c-.16.11-.32.24-.48.37l-.09.09c-.12.1-.25.21-.37.33a8.47,8.47,0,0,0-1.59,2.12,4.16,4.16,0,0,0-.24.47,1.17,1.17,0,0,0-.05.11l-.05.12a8.62,8.62,0,0,0-.61,2.1L20,59.58a.5.5,0,0,1-.49.42h-.08a.49.49,0,0,1-.41-.57l1.76-11.14a9.66,9.66,0,0,1,.6-2.17,9,9,0,0,1,.47-1c.1-.18.21-.36.32-.54a5.91,5.91,0,0,1,.35-.52l.37-.48,0,0a4.36,4.36,0,0,1,.35-.4l.17-.17a3.14,3.14,0,0,1,.31-.32l.47-.41.5-.38c.17-.12.34-.24.52-.35s.32-.2.49-.29a6.89,6.89,0,0,1,1.06-.51l.57-.2.2-.07.29-.09.44-.11.12,0,.4-.08a.22.22,0,0,1,.11,0H29a.69.69,0,0,1,.2,0l.25,0h.07A.51.51,0,0,1,30,40.5Z"></path><path d="M30,36v4h4V36Zm1,3V37h2v2Z"></path><path d="M46.5,21h-29a.5.5,0,0,1-.5-.5V15.89A6.93,6.93,0,0,1,15,11,7,7,0,0,1,25.66,5,7,7,0,0,1,38.34,5,7,7,0,0,1,47,15.89V20.5A.5.5,0,0,1,46.5,21ZM18,20H46V15.68a.51.51,0,0,1,.15-.36A6,6,0,0,0,42,5a6,6,0,0,0-3.59,1.2.47.47,0,0,1-.44.08A.49.49,0,0,1,37.64,6,6,6,0,0,0,26.36,6a.49.49,0,0,1-.33.31.47.47,0,0,1-.44-.08A6,6,0,0,0,16,11a6,6,0,0,0,1.85,4.32.51.51,0,0,1,.15.36Z"></path><path d="M21.25,32H18.5A3.5,3.5,0,0,1,15,28.5,3.44,3.44,0,0,1,16,26a3.36,3.36,0,0,1,1.32-.83A3.23,3.23,0,0,1,18.5,25H20v2.5a8.51,8.51,0,0,0,.89,3.78ZM18.5,26a2.21,2.21,0,0,0-.82.15,2.29,2.29,0,0,0-.95.58A2.5,2.5,0,0,0,18.5,31h1.17A9.51,9.51,0,0,1,19,27.5V26Z"></path><path d="M19,26.73V26h-.5a2.21,2.21,0,0,0-.82.15l-.68.26V20h4v3.5A3.44,3.44,0,0,1,20,26a.85.85,0,0,1-.17.16ZM18,21v4a2.74,2.74,0,0,1,.5,0h1A2.49,2.49,0,0,0,20,23.5V21Z"></path><path d="M45,26.73l-.8-.6A.85.85,0,0,1,44,26a3.44,3.44,0,0,1-1-2.47V20h4v6.41l-.68-.26A2.21,2.21,0,0,0,45.5,26H45ZM44.5,25h1a2.74,2.74,0,0,1,.5,0V21H44v2.5A2.5,2.5,0,0,0,44.5,25Z"></path><path d="M45.5,32H42.75l.36-.72A8.51,8.51,0,0,0,44,27.5V25h1.5a3.29,3.29,0,0,1,1.18.21A3.48,3.48,0,0,1,49,28.5,3.52,3.52,0,0,1,45.5,32Zm-1.17-1H45.5a2.5,2.5,0,0,0,.84-4.85A2.4,2.4,0,0,0,45.5,26H45v1.5A9.51,9.51,0,0,1,44.33,31Z"></path><path d="M26.5,60a.5.5,0,0,1-.5-.5V46.23a3.51,3.51,0,0,1,1.75-3l3.68-2.13a.5.5,0,1,1,.5.86l-3.68,2.13A2.52,2.52,0,0,0,27,46.23V59.5A.5.5,0,0,1,26.5,60Z"></path><path d="M29,49a1,1,0,1,1,1-1A1,1,0,0,1,29,49Zm0-1Z"></path><path d="M35,49a1,1,0,1,1,1-1A1,1,0,0,1,35,49Zm0-1Z"></path><path d="M29,54a1,1,0,1,1,1-1A1,1,0,0,1,29,54Zm0-1Z"></path><path d="M35,54a1,1,0,1,1,1-1A1,1,0,0,1,35,54Zm0-1Z"></path><path d="M29,59a1,1,0,1,1,1-1A1,1,0,0,1,29,59Zm0-1Z"></path><path d="M35,59a1,1,0,1,1,1-1A1,1,0,0,1,35,59Zm0-1Z"></path><path d="M46.5,18h-24a.5.5,0,0,1,0-1h24a.5.5,0,0,1,0,1Z"></path><path d="M33,39.5V41a.5.5,0,0,1-.25.43l-.82.48a.45.45,0,0,1-.25.07.5.5,0,0,1-.25-.93l.57-.34V40H30v.55a.77.77,0,0,1,0,.15l0,0a.38.38,0,0,1-.09.13.36.36,0,0,1-.14.11.29.29,0,0,1-.13,0h-.1a.48.48,0,0,1-.49-.43V39.5a.5.5,0,0,1,.5-.5h3A.5.5,0,0,1,33,39.5Z"></path><path d="M35,39.5v1a.5.5,0,0,1-.5.5h-.1a.29.29,0,0,1-.13,0,.36.36,0,0,1-.14-.11.38.38,0,0,1-.09-.13.09.09,0,0,1,0,0,.4.4,0,0,1,0-.15V40h-.5a.5.5,0,0,1,0-1h1A.5.5,0,0,1,35,39.5Z"></path><path d="M31.68,42a.5.5,0,0,1-.25-.93l.82-.48a.5.5,0,1,1,.5.86l-.82.48A.45.45,0,0,1,31.68,42Z"></path><path d="M39,27H38a.5.5,0,0,1,0-1h1a.5.5,0,0,1,0,1Z"></path><path d="M26,27H25a.5.5,0,0,1,0-1h1a.5.5,0,0,1,0,1Z"></path><path d="M28.5,36a8.44,8.44,0,0,1-7.61-4.72L20.75,31H18v6a13.94,13.94,0,0,0,3.37,9.11l.21.24.51.58.27-.59.05-.12a1.17,1.17,0,0,1,.05-.11c.08-.16.15-.32.24-.47a8.47,8.47,0,0,1,1.59-2.12c.12-.11.24-.23.37-.33l.09-.09c.15-.12.31-.25.48-.37s.35-.25.54-.37l.44-.26a7.79,7.79,0,0,1,1-.47l.46-.16a5.42,5.42,0,0,1,.94-.26l.17,0a.74.74,0,0,1,.17,0h0l.11,0a1.27,1.27,0,0,1,.34,0h.15a.29.29,0,0,0,.13,0,.36.36,0,0,0,.14-.11.38.38,0,0,0,.09-.13l0,0a.77.77,0,0,0,0-.15V40l-.35,0h-.21a1,1,0,0,0-.24,0,.69.69,0,0,0-.2,0h-.09l.09.42v0l-.2-.44-.4.08-.12,0-.44.11-.29.09-.2.07-.57.2a9.41,9.41,0,0,0-1.06.51c-.17.09-.33.19-.49.29s-.35.23-.52.35l-.5.38-.47.41a3.14,3.14,0,0,0-.31.32l-.17.17a4.36,4.36,0,0,0-.35.4l0,0-.37.48a5.91,5.91,0,0,0-.35.52c-.11.18-.22.36-.32.54A13,13,0,0,1,19,37V32h1.14a9.43,9.43,0,0,0,8.36,5H30v3h1V36Zm.41,4.13.09.42v-.43Z"></path><path d="M43.25,31l-.14.28A8.44,8.44,0,0,1,35.5,36H33v4h1V37h1.5a9.43,9.43,0,0,0,8.36-5H45v5a13,13,0,0,1-2.84,8.12L42.1,45c-.14-.25-.29-.5-.45-.74a9.52,9.52,0,0,0-1.11-1.34c-.2-.2-.41-.4-.63-.59a9.87,9.87,0,0,0-1.14-.84l-.23-.14a3.75,3.75,0,0,0-.44-.24,5.08,5.08,0,0,0-.47-.23,3.65,3.65,0,0,0-.41-.18l0,0a5.17,5.17,0,0,0-.51-.18l-.32-.1a5.87,5.87,0,0,0-.6-.16l-.12,0-.2,0-.1,0H35.2l-.11,0H35l-.21,0a.62.62,0,0,0-.18,0l-.11,0h-.13l-.3,0H34v.53a.4.4,0,0,0,0,.15.09.09,0,0,0,0,0,.38.38,0,0,0,.09.13.36.36,0,0,0,.14.11.29.29,0,0,0,.13,0h.1a2.44,2.44,0,0,1,.39,0l.15,0h.07l.29.07.48.11.47.15.39.14.13,0,.3.13h0a8.5,8.5,0,0,1,1,.55,9.15,9.15,0,0,1,1,.76l.42.38h0l.28.29c.12.12.22.24.33.37s.1.13.16.19l.06.08q.16.21.3.42a4.76,4.76,0,0,1,.32.51l.06.1a.41.41,0,0,1,.07.11c.11.2.22.42.31.63v0l.32.71.51-.58c.07-.08.14-.15.2-.23A14,14,0,0,0,46,37V31Z"></path></g></svg>
