<svg height='300px' width='300px'  fill="#c19d56" xmlns="http://www.w3.org/2000/svg" viewBox="0 0 512 512" x="0px" y="0px"><path d="M440,336H360a55.884,55.884,0,0,0-24.087,5.481A40.047,40.047,0,0,0,296,304V252.65a39.988,39.988,0,0,0,0-73.306V88a48.051,48.051,0,0,0-74.715-39.923,48,48,0,0,0-90.57,0A48.051,48.051,0,0,0,56,88v91.344a39.988,39.988,0,0,0,0,73.306V304a40.045,40.045,0,0,0-40,40V488a8,8,0,0,0,8,8H472a8,8,0,0,0,7.891-6.685l16-96A8.046,8.046,0,0,0,496,392,56.063,56.063,0,0,0,440,336Zm-39.138,16a55.882,55.882,0,0,0-16.281,32H344v1.182a64.96,64.96,0,0,0-15.087-18.319A40.151,40.151,0,0,1,360,352ZM366.49,435.322A8,8,0,0,0,360,432a24.068,24.068,0,0,0-8.029-17.91A63.168,63.168,0,0,0,349.926,400h35.3l13.333,80H355.1l12.49-37.47A8,8,0,0,0,366.49,435.322ZM264,454.605a23.637,23.637,0,0,0,16,0V480H264Zm32,0a23.637,23.637,0,0,0,16,0V480H296ZM320,424a8,8,0,0,0-8,8,8,8,0,0,1-16,0,8,8,0,0,0-16,0,8,8,0,0,1-16,0,8,8,0,0,0-16,0,8,8,0,0,1-7.033,7.941A7.751,7.751,0,0,1,240,440a8,8,0,0,1-3.979-14.94,8,8,0,0,0,4.012-7.286c-.026-.586-.033-1.179-.033-1.774a48.349,48.349,0,0,1,27.564-43.433,23.981,23.981,0,0,0,40.872,0A48.349,48.349,0,0,1,336,416c0,.6-.008,1.192-.033,1.78a8,8,0,0,0,4.012,7.28A8,8,0,1,1,328,432,8,8,0,0,0,320,424Zm-40-64a8,8,0,1,1,8,8A8.009,8.009,0,0,1,280,360Zm40-16v8.834a55.981,55.981,0,0,0-4.611,5.324q-1.787-.851-3.638-1.591a24,24,0,0,0-47.5,0,64.467,64.467,0,0,0-40.22,57.523A24.068,24.068,0,0,0,216,432a8,8,0,0,0-7.589,10.53L220.9,480H160V352h72a8,8,0,0,0,8-8V320h56A24.027,24.027,0,0,1,320,344ZM280,160v16H72V160ZM80,192H272v16a96,96,0,0,1-192,0ZM192,336H160V320h32Zm16-16h16v16H208Zm-80,0h16v16H128Zm152-16H233.631a112.769,112.769,0,0,0,43.548-48H280Zm24-88a24.035,24.035,0,0,1-20.592,23.754A111.652,111.652,0,0,0,288,208V193.376A24.039,24.039,0,0,1,304,216ZM104,56a31.764,31.764,0,0,1,25.6,12.805A8,8,0,0,0,144,64a32,32,0,0,1,64,0,8,8,0,0,0,14.4,4.805A32,32,0,0,1,280,88v56H224V112a8,8,0,0,0-16,0v32H144V112a8,8,0,0,0-16,0v32H72V88A32.036,32.036,0,0,1,104,56ZM48,216a24.039,24.039,0,0,1,16-22.624V208a111.652,111.652,0,0,0,4.592,31.754A24.035,24.035,0,0,1,48,216Zm24,40h2.821a112.769,112.769,0,0,0,43.548,48H72ZM32,344a24.027,24.027,0,0,1,24-24h56v24a8,8,0,0,0,8,8h24V480H32ZM228.846,453.241A23.922,23.922,0,0,0,248,454.623V480H237.766ZM338.234,480H328V454.627a23.954,23.954,0,0,0,19.154-1.386Zm126.989,0H414.777l-14.772-88.633a40,40,0,0,1,79.99,0Z"></path><circle cx="216" cy="216" r="8"></circle><circle cx="136" cy="216" r="8"></circle><path d="M168,240h16a8,8,0,0,0,0-16h-8v-8a8,8,0,0,0-16,0v16A8,8,0,0,0,168,240Z"></path><path d="M176,280c34.932,0,46.893-27.742,47.385-28.923a8,8,0,1,0-14.77-6.154C208.536,245.114,200.385,264,176,264c-23.956,0-32.248-18.238-32.636-19.126a8,8,0,0,0-14.749,6.2C129.107,252.258,141.068,280,176,280Z"></path><circle cx="184" cy="392" r="8"></circle><circle cx="184" cy="440" r="8"></circle></svg>
