<?xml version="1.0" encoding="UTF-8"?> <svg xmlns="http://www.w3.org/2000/svg" viewBox="0 0 461.75 539.76"> <g id="Layer_2" data-name="Layer 2"> <g id="Layer_1-2" data-name="Layer 1"> <path d="M436.29,371H425.54V339c17.38-11.25,36.21-29.18,36.21-50,0-29.95-20.05-54.32-44.7-54.32S372.36,259.05,372.36,289c0,20.81,18.81,38.74,36.21,50v32H292a25.42,25.42,0,0,0-8.88,1.6,158.9,158.9,0,0,0-21.45-21.72A17.57,17.57,0,0,0,276.11,343c30.5-45.71,6.42-122.76,4.82-127.74l-14.09-49.2a18,18,0,0,0,17.35-18V104a104.12,104.12,0,0,0-104-104H138.86a104.12,104.12,0,0,0-104,104v44.26a18,18,0,0,0,17.32,18l-14,49.06c-1.6,5-25.69,82,4.82,127.74a17.53,17.53,0,0,0,14.48,7.88C21.84,380.54,0,423.9,0,475.42a28,28,0,0,0,28,28H266.91a25.49,25.49,0,0,0,25,20.94h43.43a18.54,18.54,0,0,0,1.54,5.49,17,17,0,0,0,15.68,9.91h53.08A17.43,17.43,0,0,0,423,524.36h13.32a25.49,25.49,0,0,0,25.46-25.46V396.49A25.49,25.49,0,0,0,436.29,371Zm-10.75-117.5c11,5,19.24,19.19,19.24,35.47,0,10.63-10,21.48-19.24,29.05Zm-162.73,80.6h0a1.56,1.56,0,0,1-1.27.79H238.65a160.48,160.48,0,0,0-17.06-8.39v-11.1a8,8,0,0,0-8-8H197.52V294.31a101.06,101.06,0,0,0,63.08-91.88C266.37,222.56,289.72,293.8,262.81,334.13ZM159.52,285.76a85.11,85.11,0,0,1-85.1-85.1V165.43c37.75-3.36,67.94-17.44,83.13-52,15.37,35.53,48.51,48.39,87.07,51.76v35.46A85.11,85.11,0,0,1,159.52,285.76Zm22,13.59v8.08h-44v-8.08A101.72,101.72,0,0,0,181.52,299.35ZM50.84,148.26V104a88.11,88.11,0,0,1,88-88h41.32a88.11,88.11,0,0,1,88,88v44.12a2,2,0,0,1-2,2c-43-.19-81.22-7.82-95.9-48a151.79,151.79,0,0,1-4.85-16.74,8,8,0,0,0-15.56,0,118.6,118.6,0,0,1-9.21,26.5c-16.32,31.62-51.85,38.76-87.8,38.42A2,2,0,0,1,50.84,148.26Zm5.39,185.88h0c-26.54-39.76-3.11-113.31-2.87-114l.09-.28,5-17.4a101.25,101.25,0,0,0,63.08,91.89v13.12H105.67a8,8,0,0,0-8,8v11a163.73,163.73,0,0,0-17.29,8.49H57.5A1.6,1.6,0,0,1,56.23,334.14Zm63.44,49.1V487.42H76.92v-51a8,8,0,0,0-16,0v51H28a12,12,0,0,1-12-12c0-48.7,21.57-89.88,57.52-116.86l16-10.41a142.67,142.67,0,0,1,19.18-8.9,7.68,7.68,0,0,0,5-7.17v-8.65H205.6v8.75a7.73,7.73,0,0,0,.53,2.75H168A48.36,48.36,0,0,0,119.67,383.24ZM266.5,396.49v90.93h-8.16v-51a8,8,0,1,0-16,0v51H135.67V383.24A32.35,32.35,0,0,1,168,350.93h65.8l11.74,7.63a142.86,142.86,0,0,1,25.08,24.1A25.28,25.28,0,0,0,266.5,396.49ZM389.33,289c0-16.28,8.21-30.51,19.24-35.47V318.1C399.25,310.53,389.33,299.72,389.33,289Zm18.36,233.35a2,2,0,0,1-2,2H352.61c-1.78,0-2.05-1.3-2.05-3.71,0-1,.05-2.3.05-3.74a28.56,28.56,0,0,1,48.3-20.57c.13.13.28.24.41.37,7.74,7.77,8.4,16.09,8.4,22.2C407.72,520.15,407.69,521.31,407.69,522.35Zm6-47.05H393.18a43.88,43.88,0,0,0-28,0H345.27V447.58h68.4Zm31.11,23.6a8.49,8.49,0,0,1-8.49,8.48H422a41.81,41.81,0,0,0-6.43-15.11h6.56a8.49,8.49,0,0,0,8.49-8.48v-44.7a8.49,8.49,0,0,0-8.49-8.49H336.78a8.49,8.49,0,0,0-8.48,8.49v44.7a8.48,8.48,0,0,0,8.48,8.48h6a43.89,43.89,0,0,0-6.55,15.11H292a8.49,8.49,0,0,1-8.49-8.48V396.49A8.49,8.49,0,0,1,292,388H436.29a8.49,8.49,0,0,1,8.49,8.48Zm-283-87.1a10.08,10.08,0,1,0,12.13,7.49A10.08,10.08,0,0,0,161.74,411.8Zm0-41.64a10.08,10.08,0,1,0,12.13,7.49A10.07,10.07,0,0,0,161.74,370.16Zm-4.93,86a10.08,10.08,0,1,0,14.25,0A10.07,10.07,0,0,0,156.81,456.13Zm19.05-249.9a8,8,0,0,0-8,8,8.35,8.35,0,0,1-16.69,0,8,8,0,0,0-16,0,24.35,24.35,0,0,0,48.69,0A8,8,0,0,0,175.86,206.23Zm-61.63-37.59a12,12,0,1,0,12.55,8A12,12,0,0,0,114.23,168.64Zm96.25,2.22a12,12,0,1,0,0,19.59A12,12,0,0,0,210.48,170.86Zm-8-116.12h0a53,53,0,0,1,27.58,32.8,8,8,0,0,0,15.41-4.3s0-.1-.05-.15a69,69,0,0,0-35.92-42.72,8,8,0,0,0-7,14.38ZM240.66,104a8,8,0,0,0-8.53,8v6.51a8.17,8.17,0,0,0,7.47,8.25,8,8,0,0,0,8.53-8v-6.5A8.18,8.18,0,0,0,240.66,104Z"></path> </g> </g> </svg> 