<?xml version="1.0" encoding="UTF-8"?> <svg xmlns="http://www.w3.org/2000/svg" id="Layer_1" data-name="Layer 1" viewBox="0 0 4000.61 881.58"> <defs> <style>.cls-1{fill:#fff5f6;}</style> </defs> <g id="Layer_2" data-name="Layer 2"> <path class="cls-1" d="M3870.74,186.09c-20.4-.94-27.1,10.35-47.42,8.69-67.31-5.5-131.8-39.53-198.54-43.12-67-3.6-134.52,7.08-201.74,3.86-66.4-3.18-132-27.51-199.65-34.88-66-7.18-132.92-39.81-201.19-41.11-62.8-1.2-125,70.84-188.08,73.11-62.87,2.26-127.9-6.9-190.88-8.74s-126.1-37.71-189.17-33.21c-62.89,4.5-124.87,36.73-187.84,36.6s-125.65-18.51-188.41-17.15c-62.6,1.37-123.53,35.72-186.45,39.54S1762,138.76,1697.51,143.17C1634,147.51,1571.69,189,1507.65,191s-129.7-39.38-193-35.38c-64.12,4.05-124.31,66.69-187.32,70.38-64.75,3.8-130.1-21.43-192.21-18.65-65.08,2.9-123.67,29.08-185,39-62,10.06-120.25-10.41-166.94,6.33-55.92,20-110.54,31.6-158.07,56.22S334,364.87,279.85,388.65C210.39,419.17,160.5,464.4,125.61,500.43c-51.37,53-56.33,103.67,9.13,156.85,46.45,37.75,106.35,30.9,172.66,47.38,52.81,13.12,103,82.57,173.87,86.77,55.41,3.29,118.61,7.9,187.67,7.94,57.91,0,115.76-40.49,173.27-42.28,58.69-1.83,122,41.73,178.33,34,57-7.8,94.2-95.71,148.29-121.2,54.68-25.77,125.32,9.84,182,3.33,52.34-6,101.24-24.15,156-16.91,53.89,7.14,111.51,26.35,164.71,21.57,52.79-4.73,101.07-48.32,153.4-61.93s105.71-31.39,158.7-35.33c53.21-3.95,105.07,40.33,158.56,45.92,54,5.65,109.13-37.19,161.77-40.71,53.24-3.55,111.5,47.94,165.29,42.84,53.24-5,103.28-48,157.11-51.06,53.51-3,106-15.59,159.55-22.39s109.19,21.41,162.83,19.07c53.79-2.34,105.24-10.54,159.06-3.82,54.15,6.75,108.94-19.45,162.36-20.9,51.31-1.4,103.46,27.8,154.81,26,51-1.76,104.37-34,156-27.6,51.08,6.29,100,6,148.63,11.31,48.51,5.29,84,29.35,135.07,36.57,25.62-103,38.64-149.12,40.11-202.68C3906.19,339.26,3899.51,289.13,3870.74,186.09Z"></path> </g> </svg> 