<?xml version="1.0" encoding="iso-8859-1"?>
<!-- Generator: Adobe Illustrator 18.0.0, SVG Export Plug-In . SVG Version: 6.00 Build 0)  -->
<!DOCTYPE svg PUBLIC "-//W3C//DTD SVG 1.1//EN" "http://www.w3.org/Graphics/SVG/1.1/DTD/svg11.dtd">
<svg version="1.1" id="Capa_1" xmlns="http://www.w3.org/2000/svg" xmlns:xlink="http://www.w3.org/1999/xlink" x="0px" y="0px"
	 viewBox="0 0 436.392 436.392" style="enable-background:new 0 0 436.392 436.392;" xml:space="preserve">
<path d="M416.956,236.859c3.719-5.287,5.912-11.723,5.912-18.664c0-6.941-2.193-13.376-5.912-18.663
	c10.917-1.215,19.436-10.495,19.436-21.731c0-9.45-6.024-17.517-14.434-20.567c-2.923-38.702-35.325-69.304-74.762-69.304h-258
	c-39.437,0-71.838,30.602-74.762,69.303C6.025,160.283,0,168.351,0,177.801c0,11.237,8.519,20.517,19.436,21.731
	c-3.719,5.287-5.912,11.722-5.912,18.663c0,6.941,2.193,13.376,5.912,18.664C8.519,238.074,0,247.354,0,258.591
	c0,9.45,6.025,17.518,14.435,20.568c2.924,38.702,35.325,69.303,74.762,69.303h258c39.437,0,71.838-30.602,74.762-69.304
	c8.409-3.05,14.434-11.118,14.434-20.567C436.392,247.354,427.874,238.075,416.956,236.859z M27.524,218.195
	c0-10.215,8.31-18.524,18.524-18.524h344.294c10.215,0,18.525,8.31,18.525,18.524s-8.311,18.525-18.525,18.525H46.049
	C35.834,236.721,27.524,228.41,27.524,218.195z M89.196,101.93h258c31.267,0,57.101,23.651,60.586,54H28.61
	C32.095,125.58,57.929,101.93,89.196,101.93z M14,177.801c0-4.34,3.53-7.871,7.87-7.871h392.651c4.34,0,7.87,3.531,7.87,7.871
	s-3.53,7.87-7.87,7.87H21.87C17.53,185.671,14,182.141,14,177.801z M347.196,334.462h-258c-31.267,0-57.101-23.651-60.586-54
	h379.172C404.297,310.811,378.464,334.462,347.196,334.462z M414.521,266.462H21.87c-4.34,0-7.87-3.531-7.87-7.871
	s3.53-7.87,7.87-7.87h392.651c4.34,0,7.87,3.53,7.87,7.87S418.861,266.462,414.521,266.462z"/>
<g>
</g>
<g>
</g>
<g>
</g>
<g>
</g>
<g>
</g>
<g>
</g>
<g>
</g>
<g>
</g>
<g>
</g>
<g>
</g>
<g>
</g>
<g>
</g>
<g>
</g>
<g>
</g>
<g>
</g>
</svg>
